<svg xmlns="http://www.w3.org/2000/svg" xmlns:xlink="http://www.w3.org/1999/xlink" width="113" zoomAndPan="magnify" viewBox="0 0 84.75 84.749999" height="113" preserveAspectRatio="xMidYMid meet" version="1.0"><defs><clipPath id="cfc8eabb73"><path d="M 0.546875 3.839844 L 81.90625 3.839844 L 81.90625 83.949219 L 0.546875 83.949219 Z M 0.546875 3.839844 " clip-rule="nonzero"/></clipPath><clipPath id="c63539bdac"><path d="M 41.144531 3.839844 C 18.722656 3.839844 0.546875 21.773438 0.546875 43.894531 C 0.546875 66.015625 18.722656 83.949219 41.144531 83.949219 C 63.566406 83.949219 81.746094 66.015625 81.746094 43.894531 C 81.746094 21.773438 63.566406 3.839844 41.144531 3.839844 Z M 41.144531 3.839844 " clip-rule="nonzero"/></clipPath><clipPath id="64568dfb19"><path d="M 0.546875 0.839844 L 81.839844 0.839844 L 81.839844 80.949219 L 0.546875 80.949219 Z M 0.546875 0.839844 " clip-rule="nonzero"/></clipPath><clipPath id="4b207a497c"><path d="M 41.144531 0.839844 C 18.722656 0.839844 0.546875 18.773438 0.546875 40.894531 C 0.546875 63.015625 18.722656 80.949219 41.144531 80.949219 C 63.566406 80.949219 81.746094 63.015625 81.746094 40.894531 C 81.746094 18.773438 63.566406 0.839844 41.144531 0.839844 Z M 41.144531 0.839844 " clip-rule="nonzero"/></clipPath><clipPath id="0903c1c39b"><rect x="0" width="82" y="0" height="81"/></clipPath><clipPath id="c940d3a926"><path d="M 0 0 L 83.753906 0 L 83.753906 80.015625 L 0 80.015625 Z M 0 0 " clip-rule="nonzero"/></clipPath></defs><g clip-path="url(#cfc8eabb73)"><g clip-path="url(#c63539bdac)"><g transform="matrix(1, 0, 0, 1, 0.000000000000000056, 3)"><g clip-path="url(#0903c1c39b)"><g clip-path="url(#64568dfb19)"><g clip-path="url(#4b207a497c)"><path fill="#ffffff" d="M 0.546875 0.839844 L 81.59375 0.839844 L 81.59375 80.949219 L 0.546875 80.949219 Z M 0.546875 0.839844 " fill-opacity="1" fill-rule="nonzero"/></g></g></g></g></g></g><g clip-path="url(#c940d3a926)"><path fill="#ff751f" d="M 70.058594 63.539062 C 67.769531 65.242188 62.726562 64.148438 61.417969 61.625 C 60.957031 60.730469 60.613281 59.769531 60.144531 58.679688 C 59.183594 56.898438 58.296875 55.273438 57.367188 53.570312 C 60.425781 52.574219 62.972656 53.136719 65.105469 55.597656 C 66.578125 57.296875 68.050781 58.984375 70.109375 60.097656 C 71.535156 60.867188 71.421875 62.523438 70.058594 63.539062 Z M 55.964844 58.285156 C 53.304688 57.753906 50.96875 56.585938 49.097656 54.601562 C 48.792969 54.28125 48.761719 53.707031 48.453125 52.8125 C 49.207031 53.203125 49.597656 53.296875 49.816406 53.542969 C 50.753906 54.589844 51.730469 55.3125 53.285156 54.867188 C 53.664062 54.761719 54.332031 55.15625 54.675781 55.507812 C 55.265625 56.113281 55.703125 56.859375 56.265625 57.699219 C 56.203125 58 56.050781 58.304688 55.964844 58.285156 Z M 9.484375 64.851562 C 9.921875 65.363281 10.277344 65.753906 10.601562 66.164062 C 13.65625 70.042969 18.449219 71.292969 22.738281 69.328125 C 26.90625 67.417969 29.152344 63.023438 28.320312 58.285156 C 28.105469 57.058594 27.730469 55.863281 27.367188 54.46875 C 26.730469 51.46875 26.011719 48.671875 25.636719 45.828125 C 25.445312 44.40625 25.859375 42.898438 26.058594 41.4375 C 26.257812 39.953125 25.882812 39.070312 24.832031 38.769531 C 23.664062 38.4375 22.71875 39.011719 22.238281 40.480469 C 21.109375 43.925781 21.347656 47.414062 22.164062 50.875 C 22.679688 53.074219 23.382812 55.226562 23.902344 57.425781 C 24.152344 58.472656 24.3125 59.585938 24.257812 60.65625 C 24.035156 65.132812 19.285156 67.503906 15.550781 65.027344 C 13.148438 63.4375 12.398438 61.074219 12.585938 58.324219 C 12.613281 57.9375 12.691406 57.546875 12.789062 57.171875 C 13.054688 56.148438 13.160156 55.152344 12.296875 54.339844 C 11.671875 53.753906 11.0625 53.78125 9.339844 54.410156 C 8.765625 52.550781 9.046875 50.679688 9.390625 48.890625 C 10.621094 42.496094 13.738281 37.253906 19.207031 33.546875 C 19.335938 33.460938 19.460938 33.367188 19.589844 33.28125 C 20.515625 32.671875 21.535156 32.085938 21.191406 30.730469 C 20.867188 29.445312 19.796875 29.207031 18.152344 29.199219 C 19.292969 28.179688 20.089844 27.359375 20.992188 26.675781 C 27.253906 21.925781 34.316406 19.210938 42.175781 18.894531 C 47.839844 18.667969 52.960938 20.363281 57.199219 24.265625 C 58.207031 25.195312 59.023438 26.335938 60.238281 27.742188 C 58.949219 27.839844 58.144531 27.898438 57.34375 27.964844 C 56.261719 28.058594 55.589844 28.601562 55.539062 29.726562 C 55.484375 30.855469 56.152344 31.460938 57.171875 31.671875 C 57.699219 31.78125 58.261719 31.738281 58.808594 31.738281 C 62.632812 31.746094 66.457031 31.742188 70.28125 31.753906 C 74.265625 31.765625 77.199219 34.085938 77.886719 37.949219 C 78.464844 41.191406 77.664062 44.164062 75.550781 46.703125 C 74.121094 48.417969 72.972656 48.566406 70.628906 47.417969 C 72.121094 45.558594 73.25 43.558594 73.417969 41.125 C 73.449219 40.71875 74.089844 40.328125 74.492188 39.976562 C 75.453125 39.132812 75.953125 38.121094 75.507812 36.863281 C 75.058594 35.601562 74.171875 34.6875 72.796875 34.59375 C 71.164062 34.484375 69.515625 34.460938 67.886719 34.589844 C 66.515625 34.699219 65.53125 35.761719 65.359375 36.96875 C 65.164062 38.324219 65.730469 39.191406 67.222656 39.808594 C 69.558594 40.78125 69.902344 42.046875 68.316406 44.046875 C 65.148438 48.042969 57.726562 51.503906 50.71875 48.105469 C 50.367188 47.933594 50.035156 47.734375 49.691406 47.546875 C 47.371094 46.300781 45.941406 46.789062 44.933594 49.253906 C 43.921875 51.730469 44.480469 54.035156 46.023438 56.085938 C 48.4375 59.300781 51.78125 61.074219 55.671875 61.746094 C 57.21875 62.011719 58.347656 62.421875 59.214844 63.898438 C 59.917969 65.089844 61.203125 65.941406 62.363281 67.074219 C 60.316406 67.460938 58.414062 67.117188 56.5625 66.640625 C 54.835938 66.191406 53.164062 65.519531 51.472656 64.933594 C 49.902344 64.394531 49.011719 64.640625 48.503906 65.773438 C 48.007812 66.878906 48.382812 67.921875 49.890625 68.527344 C 52.621094 69.621094 55.429688 70.511719 58.433594 71.566406 C 58.597656 74.585938 59.15625 77.417969 60.066406 80.089844 C 74.277344 73.34375 84.101562 58.863281 84.101562 42.085938 C 84.101562 18.859375 65.277344 0.0351562 42.050781 0.0351562 C 18.828125 0.0351562 0 18.859375 0 42.085938 C 0 51.34375 2.996094 59.898438 8.0625 66.847656 C 8.527344 66.175781 9 65.511719 9.484375 64.851562 " fill-opacity="1" fill-rule="nonzero"/></g><path fill="#ff751f" d="M 44.957031 29.503906 C 44.011719 29.566406 43.046875 29.90625 42.203125 30.417969 C 42.074219 30.496094 41.945312 30.582031 41.820312 30.667969 C 41.511719 30.886719 41.222656 31.128906 40.960938 31.386719 C 40.609375 31.738281 40.308594 32.121094 40.082031 32.523438 C 40.011719 32.644531 39.949219 32.765625 39.898438 32.890625 C 39.894531 32.902344 39.886719 32.910156 39.882812 32.917969 C 39.804688 33.101562 39.742188 33.285156 39.699219 33.472656 C 39.625 33.773438 39.574219 34.074219 39.574219 34.359375 C 39.574219 34.992188 39.804688 35.550781 40.523438 35.871094 C 41.574219 36.339844 42.234375 35.710938 42.808594 34.855469 C 43.121094 34.386719 43.398438 34.011719 43.660156 33.722656 C 44.660156 32.617188 45.476562 32.730469 47.328125 33.726562 C 47.441406 33.789062 47.546875 33.84375 47.648438 33.890625 C 48.769531 34.449219 49.105469 34.257812 50.109375 32.757812 C 50.097656 32.722656 50.082031 32.691406 50.066406 32.660156 C 50.085938 32.628906 50.105469 32.601562 50.125 32.566406 C 49.226562 30.53125 47.246094 29.355469 44.957031 29.503906 " fill-opacity="1" fill-rule="nonzero"/></svg>