<svg xmlns="http://www.w3.org/2000/svg" xmlns:xlink="http://www.w3.org/1999/xlink" width="521" zoomAndPan="magnify" viewBox="0 0 390.75 121.500001" height="162" preserveAspectRatio="xMidYMid meet" version="1.0"><defs><g/><clipPath id="dfa483a320"><path d="M 1.222656 22.351562 L 82.488281 22.351562 L 82.488281 102.367188 L 1.222656 102.367188 Z M 1.222656 22.351562 " clip-rule="nonzero"/></clipPath><clipPath id="812c540985"><path d="M 41.773438 22.351562 C 19.378906 22.351562 1.222656 40.265625 1.222656 62.359375 C 1.222656 84.457031 19.378906 102.367188 41.773438 102.367188 C 64.171875 102.367188 82.328125 84.457031 82.328125 62.359375 C 82.328125 40.265625 64.171875 22.351562 41.773438 22.351562 Z M 41.773438 22.351562 " clip-rule="nonzero"/></clipPath><clipPath id="40cc36cbb8"><path d="M 0.222656 0.351562 L 81.417969 0.351562 L 81.417969 80.367188 L 0.222656 80.367188 Z M 0.222656 0.351562 " clip-rule="nonzero"/></clipPath><clipPath id="8fc2b7b9c1"><path d="M 40.773438 0.351562 C 18.378906 0.351562 0.222656 18.265625 0.222656 40.359375 C 0.222656 62.457031 18.378906 80.367188 40.773438 80.367188 C 63.171875 80.367188 81.328125 62.457031 81.328125 40.359375 C 81.328125 18.265625 63.171875 0.351562 40.773438 0.351562 Z M 40.773438 0.351562 " clip-rule="nonzero"/></clipPath><clipPath id="6a90ef1664"><rect x="0" width="82" y="0" height="81"/></clipPath><clipPath id="caa382207f"><path d="M 0.675781 18.515625 L 84.332031 18.515625 L 84.332031 98.4375 L 0.675781 98.4375 Z M 0.675781 18.515625 " clip-rule="nonzero"/></clipPath><clipPath id="4519d321e5"><rect x="0" width="276" y="0" height="93"/></clipPath><clipPath id="92c92f681c"><path d="M 277.828125 60.570312 L 292.964844 60.570312 L 292.964844 75.703125 L 277.828125 75.703125 Z M 277.828125 60.570312 " clip-rule="nonzero"/></clipPath><clipPath id="9277542568"><path d="M 285.394531 60.570312 C 281.214844 60.570312 277.828125 63.957031 277.828125 68.136719 C 277.828125 72.316406 281.214844 75.703125 285.394531 75.703125 C 289.574219 75.703125 292.964844 72.316406 292.964844 68.136719 C 292.964844 63.957031 289.574219 60.570312 285.394531 60.570312 Z M 285.394531 60.570312 " clip-rule="nonzero"/></clipPath><clipPath id="73a839f5f1"><path d="M 0.828125 0.570312 L 15.964844 0.570312 L 15.964844 15.703125 L 0.828125 15.703125 Z M 0.828125 0.570312 " clip-rule="nonzero"/></clipPath><clipPath id="b87f6019e3"><path d="M 8.394531 0.570312 C 4.214844 0.570312 0.828125 3.957031 0.828125 8.136719 C 0.828125 12.316406 4.214844 15.703125 8.394531 15.703125 C 12.574219 15.703125 15.964844 12.316406 15.964844 8.136719 C 15.964844 3.957031 12.574219 0.570312 8.394531 0.570312 Z M 8.394531 0.570312 " clip-rule="nonzero"/></clipPath><clipPath id="104b9de52c"><rect x="0" width="16" y="0" height="16"/></clipPath><clipPath id="8d2c2ada25"><path d="M 279 56 L 285 56 L 285 66 L 279 66 Z M 279 56 " clip-rule="nonzero"/></clipPath><clipPath id="a791142952"><path d="M 273.226562 58.707031 L 292.9375 54.449219 L 297.507812 75.625 L 277.796875 79.878906 Z M 273.226562 58.707031 " clip-rule="nonzero"/></clipPath><clipPath id="c37b5fb390"><path d="M 273.226562 58.707031 L 292.9375 54.449219 L 297.507812 75.625 L 277.796875 79.878906 Z M 273.226562 58.707031 " clip-rule="nonzero"/></clipPath><clipPath id="a485aa2ecb"><path d="M 285 58 L 291 58 L 291 66 L 285 66 Z M 285 58 " clip-rule="nonzero"/></clipPath><clipPath id="c4378c5fa2"><path d="M 273.226562 58.707031 L 292.9375 54.449219 L 297.507812 75.625 L 277.796875 79.878906 Z M 273.226562 58.707031 " clip-rule="nonzero"/></clipPath><clipPath id="538346ac8f"><path d="M 273.226562 58.707031 L 292.9375 54.449219 L 297.507812 75.625 L 277.796875 79.878906 Z M 273.226562 58.707031 " clip-rule="nonzero"/></clipPath><clipPath id="44551e366c"><path d="M 274 63 L 280 63 L 280 71 L 274 71 Z M 274 63 " clip-rule="nonzero"/></clipPath><clipPath id="bcf3625c90"><path d="M 273.226562 58.707031 L 292.9375 54.449219 L 297.507812 75.625 L 277.796875 79.878906 Z M 273.226562 58.707031 " clip-rule="nonzero"/></clipPath><clipPath id="0e1c5dc3ce"><path d="M 273.226562 58.707031 L 292.9375 54.449219 L 297.507812 75.625 L 277.796875 79.878906 Z M 273.226562 58.707031 " clip-rule="nonzero"/></clipPath><clipPath id="071410ae4c"><path d="M 290 62 L 296 62 L 296 70 L 290 70 Z M 290 62 " clip-rule="nonzero"/></clipPath><clipPath id="d15c3fa100"><path d="M 273.226562 58.707031 L 292.9375 54.449219 L 297.507812 75.625 L 277.796875 79.878906 Z M 273.226562 58.707031 " clip-rule="nonzero"/></clipPath><clipPath id="e2107d3fbd"><path d="M 273.226562 58.707031 L 292.9375 54.449219 L 297.507812 75.625 L 277.796875 79.878906 Z M 273.226562 58.707031 " clip-rule="nonzero"/></clipPath><clipPath id="8b190a8a60"><path d="M 277 66 L 294 66 L 294 79 L 277 79 Z M 277 66 " clip-rule="nonzero"/></clipPath><clipPath id="4854ccfd3e"><path d="M 273.226562 58.707031 L 292.9375 54.449219 L 297.507812 75.625 L 277.796875 79.878906 Z M 273.226562 58.707031 " clip-rule="nonzero"/></clipPath><clipPath id="8ad86f246a"><path d="M 273.226562 58.707031 L 292.9375 54.449219 L 297.507812 75.625 L 277.796875 79.878906 Z M 273.226562 58.707031 " clip-rule="nonzero"/></clipPath></defs><g clip-path="url(#dfa483a320)"><g clip-path="url(#812c540985)"><g transform="matrix(1, 0, 0, 1, 1, 22)"><g clip-path="url(#6a90ef1664)"><g clip-path="url(#40cc36cbb8)"><g clip-path="url(#8fc2b7b9c1)"><path fill="#ffffff" d="M 0.222656 0.351562 L 81.175781 0.351562 L 81.175781 80.367188 L 0.222656 80.367188 Z M 0.222656 0.351562 " fill-opacity="1" fill-rule="nonzero"/></g></g></g></g></g></g><g clip-path="url(#caa382207f)"><path fill="#ff751f" d="M 70.65625 81.980469 C 68.367188 83.683594 63.328125 82.589844 62.023438 80.070312 C 61.5625 79.175781 61.222656 78.21875 60.753906 77.128906 C 59.792969 75.347656 58.902344 73.726562 57.976562 72.027344 C 61.03125 71.03125 63.574219 71.589844 65.707031 74.050781 C 67.175781 75.746094 68.648438 77.433594 70.703125 78.542969 C 72.128906 79.3125 72.015625 80.96875 70.65625 81.980469 Z M 56.574219 76.734375 C 53.921875 76.203125 51.585938 75.039062 49.71875 73.058594 C 49.414062 72.738281 49.378906 72.160156 49.070312 71.265625 C 49.824219 71.660156 50.214844 71.753906 50.4375 72 C 51.371094 73.042969 52.347656 73.765625 53.898438 73.324219 C 54.277344 73.214844 54.941406 73.609375 55.289062 73.960938 C 55.875 74.5625 56.316406 75.3125 56.875 76.148438 C 56.8125 76.449219 56.660156 76.753906 56.574219 76.734375 Z M 10.152344 83.292969 C 10.585938 83.804688 10.941406 84.195312 11.265625 84.605469 C 14.316406 88.476562 19.101562 89.726562 23.386719 87.761719 C 27.554688 85.855469 29.792969 81.464844 28.964844 76.734375 C 28.75 75.511719 28.375 74.316406 28.011719 72.921875 C 27.378906 69.925781 26.65625 67.132812 26.28125 64.292969 C 26.09375 62.875 26.507812 61.367188 26.703125 59.90625 C 26.902344 58.425781 26.527344 57.542969 25.480469 57.242188 C 24.316406 56.910156 23.367188 57.480469 22.890625 58.949219 C 21.761719 62.394531 22 65.875 22.8125 69.332031 C 23.328125 71.527344 24.035156 73.679688 24.550781 75.875 C 24.800781 76.921875 24.960938 78.035156 24.90625 79.101562 C 24.683594 83.574219 19.941406 85.941406 16.207031 83.46875 C 13.8125 81.882812 13.0625 79.519531 13.25 76.773438 C 13.273438 76.386719 13.351562 76 13.449219 75.625 C 13.714844 74.601562 13.820312 73.605469 12.957031 72.796875 C 12.335938 72.210938 11.726562 72.234375 10.003906 72.863281 C 9.433594 71.003906 9.710938 69.136719 10.054688 67.351562 C 11.285156 60.960938 14.398438 55.730469 19.863281 52.027344 C 19.992188 51.9375 20.113281 51.84375 20.246094 51.757812 C 21.167969 51.152344 22.1875 50.5625 21.84375 49.210938 C 21.515625 47.925781 20.449219 47.691406 18.808594 47.683594 C 19.945312 46.664062 20.742188 45.847656 21.644531 45.164062 C 27.898438 40.414062 34.953125 37.707031 42.800781 37.390625 C 48.460938 37.160156 53.578125 38.855469 57.808594 42.753906 C 58.816406 43.683594 59.628906 44.820312 60.84375 46.226562 C 59.558594 46.324219 58.753906 46.382812 57.953125 46.449219 C 56.871094 46.542969 56.203125 47.085938 56.148438 48.207031 C 56.097656 49.335938 56.761719 49.941406 57.78125 50.152344 C 58.308594 50.261719 58.871094 50.21875 59.414062 50.21875 C 63.234375 50.226562 67.054688 50.222656 70.875 50.234375 C 74.855469 50.246094 77.785156 52.5625 78.472656 56.421875 C 79.050781 59.660156 78.25 62.628906 76.136719 65.167969 C 74.710938 66.882812 73.5625 67.027344 71.222656 65.878906 C 72.710938 64.023438 73.839844 62.023438 74.011719 59.59375 C 74.039062 59.1875 74.679688 58.796875 75.082031 58.449219 C 76.042969 57.605469 76.542969 56.59375 76.097656 55.335938 C 75.648438 54.078125 74.761719 53.164062 73.386719 53.070312 C 71.757812 52.960938 70.109375 52.9375 68.484375 53.066406 C 67.113281 53.175781 66.132812 54.238281 65.960938 55.441406 C 65.765625 56.796875 66.332031 57.660156 67.820312 58.28125 C 70.15625 59.25 70.5 60.515625 68.914062 62.511719 C 65.75 66.503906 58.335938 69.960938 51.335938 66.566406 C 50.988281 66.394531 50.652344 66.195312 50.308594 66.011719 C 47.992188 64.765625 46.5625 65.253906 45.558594 67.714844 C 44.546875 70.1875 45.105469 72.492188 46.644531 74.539062 C 49.054688 77.75 52.398438 79.523438 56.285156 80.191406 C 57.828125 80.457031 58.957031 80.867188 59.824219 82.339844 C 60.527344 83.53125 61.808594 84.378906 62.96875 85.515625 C 60.921875 85.898438 59.023438 85.554688 57.175781 85.078125 C 55.449219 84.632812 53.777344 83.960938 52.085938 83.375 C 50.523438 82.835938 49.628906 83.082031 49.121094 84.214844 C 48.628906 85.316406 49.003906 86.359375 50.507812 86.964844 C 53.234375 88.058594 56.042969 88.945312 59.042969 90 C 59.207031 93.015625 59.761719 95.84375 60.675781 98.515625 C 74.867188 91.773438 84.683594 77.3125 84.683594 60.554688 C 84.683594 37.355469 65.875 18.550781 42.679688 18.550781 C 19.480469 18.550781 0.675781 37.355469 0.675781 60.554688 C 0.675781 69.800781 3.667969 78.347656 8.730469 85.285156 C 9.191406 84.617188 9.664062 83.953125 10.152344 83.292969 " fill-opacity="1" fill-rule="nonzero"/></g><path fill="#ff751f" d="M 45.578125 47.988281 C 44.636719 48.046875 43.675781 48.386719 42.832031 48.902344 C 42.699219 48.980469 42.574219 49.0625 42.449219 49.148438 C 42.140625 49.367188 41.851562 49.609375 41.589844 49.867188 C 41.238281 50.21875 40.9375 50.601562 40.710938 51.003906 C 40.644531 51.125 40.582031 51.246094 40.527344 51.371094 C 40.523438 51.378906 40.515625 51.390625 40.511719 51.398438 C 40.433594 51.582031 40.371094 51.765625 40.328125 51.949219 C 40.253906 52.25 40.203125 52.550781 40.203125 52.835938 C 40.203125 53.46875 40.433594 54.027344 41.152344 54.347656 C 42.203125 54.816406 42.863281 54.1875 43.4375 53.332031 C 43.746094 52.863281 44.023438 52.488281 44.285156 52.199219 C 45.285156 51.097656 46.097656 51.210938 47.949219 52.207031 C 48.0625 52.265625 48.167969 52.320312 48.265625 52.371094 C 49.386719 52.925781 49.722656 52.734375 50.726562 51.234375 C 50.714844 51.203125 50.699219 51.171875 50.683594 51.140625 C 50.703125 51.109375 50.722656 51.078125 50.742188 51.046875 C 49.847656 49.015625 47.867188 47.839844 45.578125 47.988281 " fill-opacity="1" fill-rule="nonzero"/><g transform="matrix(1, 0, 0, 1, 98, 14)"><g clip-path="url(#4519d321e5)"><g fill="#ff751f" fill-opacity="1"><g transform="translate(0.474338, 73.370811)"><g><path d="M 39.5625 -55.234375 C 40.707031 -55.234375 41.566406 -55.191406 42.140625 -55.109375 C 42.722656 -55.035156 43.378906 -54.796875 44.109375 -54.390625 C 44.835938 -53.992188 45.351562 -53.316406 45.65625 -52.359375 C 45.957031 -51.410156 46.109375 -50.128906 46.109375 -48.515625 C 46.109375 -46.910156 45.957031 -45.628906 45.65625 -44.671875 C 45.351562 -43.722656 44.828125 -43.0625 44.078125 -42.6875 C 43.328125 -42.3125 42.660156 -42.082031 42.078125 -42 C 41.503906 -41.925781 40.613281 -41.890625 39.40625 -41.890625 L 16.34375 -41.890625 L 16.34375 -34.28125 L 31.1875 -34.28125 C 32.394531 -34.28125 33.285156 -34.242188 33.859375 -34.171875 C 34.441406 -34.097656 35.109375 -33.859375 35.859375 -33.453125 C 37.171875 -32.703125 37.828125 -30.71875 37.828125 -27.5 C 37.828125 -23.976562 36.867188 -21.894531 34.953125 -21.25 C 34.148438 -21 32.867188 -20.875 31.109375 -20.875 L 16.34375 -20.875 L 16.34375 -6.625 C 16.34375 -5.425781 16.304688 -4.550781 16.234375 -4 C 16.160156 -3.445312 15.921875 -2.789062 15.515625 -2.03125 C 14.816406 -0.675781 12.859375 0 9.640625 0 C 6.128906 0 4.070312 -0.953125 3.46875 -2.859375 C 3.164062 -3.660156 3.015625 -4.941406 3.015625 -6.703125 L 3.015625 -48.59375 C 3.015625 -51.15625 3.488281 -52.898438 4.4375 -53.828125 C 5.394531 -54.765625 7.207031 -55.234375 9.875 -55.234375 Z M 39.5625 -55.234375 "/></g></g></g><g fill="#ff751f" fill-opacity="1"><g transform="translate(43.942733, 73.370811)"><g><path d="M 20.640625 -0.15625 C 15.566406 -0.15625 11.359375 -2.070312 8.015625 -5.90625 C 4.679688 -9.75 3.015625 -14.4375 3.015625 -19.96875 L 3.015625 -33.15625 C 3.015625 -34.351562 3.050781 -35.226562 3.125 -35.78125 C 3.195312 -36.332031 3.410156 -36.988281 3.765625 -37.75 C 4.472656 -39.101562 6.429688 -39.78125 9.640625 -39.78125 C 13.160156 -39.78125 15.222656 -38.828125 15.828125 -36.921875 C 16.128906 -36.117188 16.28125 -34.835938 16.28125 -33.078125 L 16.28125 -19.890625 C 16.28125 -17.828125 16.867188 -16.21875 18.046875 -15.0625 C 19.222656 -13.90625 20.800781 -13.328125 22.78125 -13.328125 C 24.769531 -13.328125 26.378906 -13.929688 27.609375 -15.140625 C 28.835938 -16.347656 29.453125 -17.929688 29.453125 -19.890625 L 29.453125 -33.234375 C 29.453125 -34.378906 29.488281 -35.238281 29.5625 -35.8125 C 29.644531 -36.394531 29.882812 -37.066406 30.28125 -37.828125 C 30.9375 -39.128906 32.875 -39.78125 36.09375 -39.78125 C 39.257812 -39.78125 41.191406 -39.101562 41.890625 -37.75 C 42.242188 -36.988281 42.457031 -36.320312 42.53125 -35.75 C 42.601562 -35.175781 42.640625 -34.3125 42.640625 -33.15625 L 42.640625 -6.484375 C 42.640625 -5.378906 42.601562 -4.535156 42.53125 -3.953125 C 42.457031 -3.378906 42.21875 -2.738281 41.8125 -2.03125 C 41.0625 -0.726562 39.128906 -0.078125 36.015625 -0.078125 C 32.953125 -0.078125 31.066406 -0.679688 30.359375 -1.890625 C 29.859375 -2.742188 29.609375 -3.769531 29.609375 -4.96875 C 29.410156 -4.613281 28.957031 -4.109375 28.25 -3.453125 C 27.550781 -2.804688 26.875 -2.257812 26.21875 -1.8125 C 24.507812 -0.707031 22.648438 -0.15625 20.640625 -0.15625 Z M 20.640625 -0.15625 "/></g></g></g><g fill="#ff751f" fill-opacity="1"><g transform="translate(89.59595, 73.370811)"><g><path d="M 29.984375 -39.25 C 30.941406 -38.945312 31.734375 -38.429688 32.359375 -37.703125 C 32.984375 -36.972656 33.296875 -35.804688 33.296875 -34.203125 C 33.296875 -32.597656 32.816406 -30.835938 31.859375 -28.921875 C 30.910156 -27.015625 29.53125 -26.0625 27.71875 -26.0625 C 26.820312 -26.0625 25.957031 -26.265625 25.125 -26.671875 C 24.300781 -27.078125 23.207031 -27.28125 21.84375 -27.28125 C 20.488281 -27.28125 19.222656 -26.800781 18.046875 -25.84375 C 16.867188 -24.882812 16.28125 -23.726562 16.28125 -22.375 L 16.28125 -6.5625 C 16.28125 -5.40625 16.238281 -4.535156 16.15625 -3.953125 C 16.082031 -3.378906 15.847656 -2.710938 15.453125 -1.953125 C 14.691406 -0.648438 12.726562 0 9.5625 0 C 7.15625 0 5.425781 -0.425781 4.375 -1.28125 C 3.570312 -1.976562 3.117188 -3.054688 3.015625 -4.515625 C 3.015625 -5.023438 3.015625 -5.753906 3.015625 -6.703125 L 3.015625 -33.15625 C 3.015625 -34.3125 3.050781 -35.175781 3.125 -35.75 C 3.195312 -36.320312 3.410156 -36.960938 3.765625 -37.671875 C 4.472656 -39.023438 6.429688 -39.703125 9.640625 -39.703125 C 12.660156 -39.703125 14.546875 -39.125 15.296875 -37.96875 C 15.847656 -37.164062 16.125 -36.335938 16.125 -35.484375 C 16.375 -35.835938 16.738281 -36.265625 17.21875 -36.765625 C 17.695312 -37.265625 18.710938 -37.941406 20.265625 -38.796875 C 21.828125 -39.648438 23.195312 -40.078125 24.375 -40.078125 C 25.550781 -40.078125 26.539062 -40.015625 27.34375 -39.890625 C 28.15625 -39.765625 29.035156 -39.550781 29.984375 -39.25 Z M 29.984375 -39.25 "/></g></g></g><g fill="#ff751f" fill-opacity="1"><g transform="translate(124.024205, 73.370811)"><g><path d="M 39.5625 -55.234375 C 40.707031 -55.234375 41.566406 -55.191406 42.140625 -55.109375 C 42.722656 -55.035156 43.378906 -54.796875 44.109375 -54.390625 C 44.835938 -53.992188 45.351562 -53.316406 45.65625 -52.359375 C 45.957031 -51.410156 46.109375 -50.128906 46.109375 -48.515625 C 46.109375 -46.910156 45.957031 -45.628906 45.65625 -44.671875 C 45.351562 -43.722656 44.828125 -43.0625 44.078125 -42.6875 C 43.328125 -42.3125 42.660156 -42.082031 42.078125 -42 C 41.503906 -41.925781 40.613281 -41.890625 39.40625 -41.890625 L 16.34375 -41.890625 L 16.34375 -34.28125 L 31.1875 -34.28125 C 32.394531 -34.28125 33.285156 -34.242188 33.859375 -34.171875 C 34.441406 -34.097656 35.109375 -33.859375 35.859375 -33.453125 C 37.171875 -32.703125 37.828125 -30.71875 37.828125 -27.5 C 37.828125 -23.976562 36.867188 -21.894531 34.953125 -21.25 C 34.148438 -21 32.867188 -20.875 31.109375 -20.875 L 16.34375 -20.875 L 16.34375 -6.625 C 16.34375 -5.425781 16.304688 -4.550781 16.234375 -4 C 16.160156 -3.445312 15.921875 -2.789062 15.515625 -2.03125 C 14.816406 -0.675781 12.859375 0 9.640625 0 C 6.128906 0 4.070312 -0.953125 3.46875 -2.859375 C 3.164062 -3.660156 3.015625 -4.941406 3.015625 -6.703125 L 3.015625 -48.59375 C 3.015625 -51.15625 3.488281 -52.898438 4.4375 -53.828125 C 5.394531 -54.765625 7.207031 -55.234375 9.875 -55.234375 Z M 39.5625 -55.234375 "/></g></g></g><g fill="#ff751f" fill-opacity="1"><g transform="translate(165.232485, 73.370811)"><g><path d="M 28.78125 -35.484375 C 29.082031 -38.296875 31.066406 -39.703125 34.734375 -39.703125 C 36.691406 -39.703125 38.144531 -39.550781 39.09375 -39.25 C 40.050781 -38.945312 40.71875 -38.421875 41.09375 -37.671875 C 41.476562 -36.921875 41.707031 -36.253906 41.78125 -35.671875 C 41.851562 -35.097656 41.890625 -34.234375 41.890625 -33.078125 L 41.890625 -6.703125 C 41.890625 -5.546875 41.851562 -4.675781 41.78125 -4.09375 C 41.707031 -3.519531 41.492188 -2.859375 41.140625 -2.109375 C 40.429688 -0.804688 38.707031 -0.15625 35.96875 -0.15625 C 33.238281 -0.15625 31.40625 -0.492188 30.46875 -1.171875 C 29.539062 -1.847656 29.003906 -2.835938 28.859375 -4.140625 C 26.992188 -1.484375 23.890625 -0.15625 19.546875 -0.15625 C 15.203125 -0.15625 11.171875 -2.140625 7.453125 -6.109375 C 3.742188 -10.078125 1.890625 -14.679688 1.890625 -19.921875 C 1.890625 -25.171875 3.757812 -29.765625 7.5 -33.703125 C 11.238281 -37.648438 15.34375 -39.625 19.8125 -39.625 C 21.519531 -39.625 23.078125 -39.320312 24.484375 -38.71875 C 25.890625 -38.125 26.867188 -37.5625 27.421875 -37.03125 C 27.972656 -36.5 28.425781 -35.984375 28.78125 -35.484375 Z M 15.0625 -19.8125 C 15.0625 -18.15625 15.710938 -16.660156 17.015625 -15.328125 C 18.328125 -13.992188 19.910156 -13.328125 21.765625 -13.328125 C 23.628906 -13.328125 25.175781 -14.003906 26.40625 -15.359375 C 27.632812 -16.722656 28.25 -18.21875 28.25 -19.84375 C 28.25 -21.476562 27.660156 -23 26.484375 -24.40625 C 25.304688 -25.8125 23.722656 -26.515625 21.734375 -26.515625 C 19.753906 -26.515625 18.144531 -25.8125 16.90625 -24.40625 C 15.675781 -23 15.0625 -21.46875 15.0625 -19.8125 Z M 15.0625 -19.8125 "/></g></g></g><g fill="#ff751f" fill-opacity="1"><g transform="translate(210.132343, 73.370811)"><g><path d="M 15.96875 -34.4375 C 18.332031 -38 21.171875 -39.78125 24.484375 -39.78125 C 29.609375 -39.78125 33.425781 -37.597656 35.9375 -33.234375 C 36.488281 -33.984375 37.15625 -34.769531 37.9375 -35.59375 C 38.71875 -36.425781 39.960938 -37.332031 41.671875 -38.3125 C 43.378906 -39.289062 45.132812 -39.78125 46.9375 -39.78125 C 50.957031 -39.78125 54.320312 -38.234375 57.03125 -35.140625 C 59.75 -32.054688 61.109375 -26.945312 61.109375 -19.8125 L 61.109375 -6.625 C 61.109375 -5.46875 61.066406 -4.601562 60.984375 -4.03125 C 60.910156 -3.457031 60.675781 -2.789062 60.28125 -2.03125 C 59.625 -0.675781 57.6875 0 54.46875 0 C 51.3125 0 49.378906 -0.703125 48.671875 -2.109375 C 48.316406 -2.859375 48.101562 -3.519531 48.03125 -4.09375 C 47.957031 -4.675781 47.921875 -5.546875 47.921875 -6.703125 L 47.921875 -19.890625 C 47.921875 -24.265625 46.363281 -26.453125 43.25 -26.453125 C 41.488281 -26.453125 40.296875 -25.875 39.671875 -24.71875 C 39.046875 -23.5625 38.734375 -21.925781 38.734375 -19.8125 L 38.734375 -6.625 C 38.734375 -5.425781 38.691406 -4.550781 38.609375 -4 C 38.535156 -3.445312 38.296875 -2.789062 37.890625 -2.03125 C 37.191406 -0.675781 35.234375 0 32.015625 0 C 28.859375 0 26.925781 -0.703125 26.21875 -2.109375 C 25.863281 -2.859375 25.648438 -3.519531 25.578125 -4.09375 C 25.503906 -4.675781 25.46875 -5.546875 25.46875 -6.703125 L 25.46875 -19.890625 C 25.46875 -24.265625 23.910156 -26.453125 20.796875 -26.453125 C 17.785156 -26.453125 16.28125 -24.265625 16.28125 -19.890625 L 16.28125 -6.5625 C 16.28125 -5.40625 16.238281 -4.535156 16.15625 -3.953125 C 16.082031 -3.378906 15.847656 -2.710938 15.453125 -1.953125 C 14.691406 -0.648438 12.726562 0 9.5625 0 C 6.40625 0 4.472656 -0.675781 3.765625 -2.03125 C 3.410156 -2.789062 3.195312 -3.445312 3.125 -4 C 3.050781 -4.550781 3.015625 -5.425781 3.015625 -6.625 L 3.015625 -33.15625 C 3.015625 -34.3125 3.050781 -35.175781 3.125 -35.75 C 3.195312 -36.320312 3.4375 -36.960938 3.84375 -37.671875 C 4.59375 -39.023438 6.375 -39.703125 9.1875 -39.703125 C 12 -39.703125 13.832031 -39.25 14.6875 -38.34375 C 15.539062 -37.445312 15.96875 -36.144531 15.96875 -34.4375 Z M 15.96875 -34.4375 "/></g></g></g></g></g><g clip-path="url(#92c92f681c)"><g clip-path="url(#9277542568)"><g transform="matrix(1, 0, 0, 1, 277, 60)"><g clip-path="url(#104b9de52c)"><g clip-path="url(#73a839f5f1)"><g clip-path="url(#b87f6019e3)"><path fill="#ff751f" d="M 0.828125 0.570312 L 15.964844 0.570312 L 15.964844 15.703125 L 0.828125 15.703125 Z M 0.828125 0.570312 " fill-opacity="1" fill-rule="nonzero"/></g></g></g></g></g></g><g clip-path="url(#8d2c2ada25)"><g clip-path="url(#a791142952)"><g clip-path="url(#c37b5fb390)"><path fill="#ffffff" d="M 281.484375 56.972656 C 282.78125 56.777344 283.660156 58.101562 283.992188 59.148438 C 284.359375 60.316406 284.421875 61.492188 284.179688 62.683594 C 284 63.546875 283.554688 64.667969 282.703125 65.074219 C 282.441406 65.199219 282.171875 65.238281 281.890625 65.1875 C 280.847656 65.011719 280.136719 63.789062 279.824219 62.890625 C 279.300781 61.382812 279.273438 59.664062 279.984375 58.230469 C 280.265625 57.65625 280.828125 57.074219 281.484375 56.972656 Z M 281.484375 56.972656 " fill-opacity="1" fill-rule="nonzero"/></g></g></g><g clip-path="url(#a485aa2ecb)"><g clip-path="url(#c4378c5fa2)"><g clip-path="url(#538346ac8f)"><path fill="#ffffff" d="M 286.023438 59.226562 C 286.40625 58.496094 287.160156 57.882812 288.035156 58.046875 C 288.847656 58.199219 289.414062 58.875 289.710938 59.605469 C 290.132812 60.640625 290.171875 61.714844 290.003906 62.839844 C 289.839844 63.929688 289.191406 65.824219 287.742188 65.691406 C 286.871094 65.613281 286.179688 64.597656 285.871094 63.878906 C 285.226562 62.378906 285.257812 60.691406 286.023438 59.226562 Z M 286.023438 59.226562 " fill-opacity="1" fill-rule="nonzero"/></g></g></g><g clip-path="url(#44551e366c)"><g clip-path="url(#bcf3625c90)"><g clip-path="url(#0e1c5dc3ce)"><path fill="#ffffff" d="M 274.988281 66.867188 L 274.839844 66.191406 C 274.761719 65.644531 274.78125 65.125 274.894531 64.636719 C 275.183594 63.421875 276.269531 62.765625 277.429688 63.367188 C 278.253906 63.792969 278.839844 64.523438 279.191406 65.371094 C 279.550781 66.222656 279.660156 67.125 279.527344 68.082031 C 279.4375 68.746094 279.199219 69.492188 278.683594 69.910156 C 277.691406 70.710938 276.488281 69.652344 275.945312 68.871094 C 275.523438 68.257812 275.203125 67.589844 274.988281 66.867188 Z M 274.988281 66.867188 " fill-opacity="1" fill-rule="nonzero"/></g></g></g><g clip-path="url(#071410ae4c)"><g clip-path="url(#d15c3fa100)"><g clip-path="url(#e2107d3fbd)"><path fill="#ffffff" d="M 293.621094 69.621094 C 292.785156 70.085938 291.988281 69.550781 291.507812 68.878906 C 290.558594 67.539062 290.347656 65.816406 290.9375 64.285156 C 291.257812 63.453125 292.007812 62.464844 293 62.472656 C 294.441406 62.484375 295.074219 64.222656 295.136719 65.394531 C 295.207031 66.65625 294.878906 68.925781 293.621094 69.621094 Z M 293.621094 69.621094 " fill-opacity="1" fill-rule="nonzero"/></g></g></g><g clip-path="url(#8b190a8a60)"><g clip-path="url(#4854ccfd3e)"><g clip-path="url(#8ad86f246a)"><path fill="#ffffff" d="M 284.554688 66.582031 C 286.800781 66.511719 287.945312 68.175781 289.328125 69.601562 C 289.847656 70.136719 290.441406 70.5625 291.105469 70.882812 C 291.457031 71.046875 291.632812 71.128906 291.632812 71.132812 C 292.414062 71.554688 293.007812 72.152344 293.414062 72.933594 C 294.140625 74.328125 293.660156 75.878906 292.226562 76.59375 C 291.113281 77.144531 289.859375 76.933594 288.550781 76.738281 C 287.144531 76.523438 285.808594 76.742188 284.539062 77.390625 C 283.78125 77.773438 282.851562 78.417969 281.914062 78.734375 C 280.789062 79.109375 279.660156 78.972656 278.730469 78.234375 C 278.082031 77.722656 277.710938 77.042969 277.636719 76.21875 C 277.53125 75.058594 277.980469 73.847656 278.730469 72.980469 C 278.808594 72.890625 278.972656 72.734375 279.222656 72.507812 C 280.15625 71.664062 280.675781 70.652344 281.15625 69.507812 C 281.683594 68.261719 282.507812 67.058594 283.90625 66.699219 C 284.203125 66.625 284.417969 66.585938 284.554688 66.582031 Z M 284.554688 66.582031 " fill-opacity="1" fill-rule="nonzero"/></g></g></g></svg>