<svg xmlns="http://www.w3.org/2000/svg" xmlns:xlink="http://www.w3.org/1999/xlink" width="526" zoomAndPan="magnify" viewBox="0 0 394.5 125.249995" height="167" preserveAspectRatio="xMidYMid meet" version="1.0"><defs><g/><clipPath id="7ec6e5e06d"><path d="M 1.46875 22.308594 L 82.585938 22.308594 L 82.585938 102.175781 L 1.46875 102.175781 Z M 1.46875 22.308594 " clip-rule="nonzero"/></clipPath><clipPath id="7e6b91719b"><path d="M 41.945312 22.308594 C 19.589844 22.308594 1.46875 40.1875 1.46875 62.242188 C 1.46875 84.296875 19.589844 102.175781 41.945312 102.175781 C 64.300781 102.175781 82.425781 84.296875 82.425781 62.242188 C 82.425781 40.1875 64.300781 22.308594 41.945312 22.308594 Z M 41.945312 22.308594 " clip-rule="nonzero"/></clipPath><clipPath id="b1a23efda5"><path d="M 0.46875 0.308594 L 81.515625 0.308594 L 81.515625 80.175781 L 0.46875 80.175781 Z M 0.46875 0.308594 " clip-rule="nonzero"/></clipPath><clipPath id="3b93488c5d"><path d="M 40.945312 0.308594 C 18.589844 0.308594 0.46875 18.1875 0.46875 40.242188 C 0.46875 62.296875 18.589844 80.175781 40.945312 80.175781 C 63.300781 80.175781 81.425781 62.296875 81.425781 40.242188 C 81.425781 18.1875 63.300781 0.308594 40.945312 0.308594 Z M 40.945312 0.308594 " clip-rule="nonzero"/></clipPath><clipPath id="bdf298023e"><rect x="0" width="82" y="0" height="81"/></clipPath><clipPath id="5a5e3ddccc"><path d="M 0.925781 18.484375 L 84.425781 18.484375 L 84.425781 98.253906 L 0.925781 98.253906 Z M 0.925781 18.484375 " clip-rule="nonzero"/></clipPath><clipPath id="b6530a50bc"><rect x="0" width="277" y="0" height="92"/></clipPath><clipPath id="e17b3bb6d4"><path d="M 277.5625 60.457031 L 292.667969 60.457031 L 292.667969 75.5625 L 277.5625 75.5625 Z M 277.5625 60.457031 " clip-rule="nonzero"/></clipPath><clipPath id="83b83e3b20"><path d="M 285.113281 60.457031 C 280.945312 60.457031 277.5625 63.835938 277.5625 68.007812 C 277.5625 72.179688 280.945312 75.5625 285.113281 75.5625 C 289.285156 75.5625 292.667969 72.179688 292.667969 68.007812 C 292.667969 63.835938 289.285156 60.457031 285.113281 60.457031 Z M 285.113281 60.457031 " clip-rule="nonzero"/></clipPath><clipPath id="5afcfc1ddf"><path d="M 0.5625 0.457031 L 15.667969 0.457031 L 15.667969 15.5625 L 0.5625 15.5625 Z M 0.5625 0.457031 " clip-rule="nonzero"/></clipPath><clipPath id="061631e254"><path d="M 8.113281 0.457031 C 3.945312 0.457031 0.5625 3.835938 0.5625 8.007812 C 0.5625 12.179688 3.945312 15.5625 8.113281 15.5625 C 12.285156 15.5625 15.667969 12.179688 15.667969 8.007812 C 15.667969 3.835938 12.285156 0.457031 8.113281 0.457031 Z M 8.113281 0.457031 " clip-rule="nonzero"/></clipPath><clipPath id="7dc93e08e5"><rect x="0" width="16" y="0" height="16"/></clipPath><clipPath id="1f37509db0"><path d="M 279 56 L 285 56 L 285 66 L 279 66 Z M 279 56 " clip-rule="nonzero"/></clipPath><clipPath id="0b48adb804"><path d="M 272.96875 58.597656 L 292.644531 54.351562 L 297.207031 75.484375 L 277.527344 79.730469 Z M 272.96875 58.597656 " clip-rule="nonzero"/></clipPath><clipPath id="d2ae72caac"><path d="M 272.96875 58.597656 L 292.644531 54.351562 L 297.207031 75.484375 L 277.527344 79.730469 Z M 272.96875 58.597656 " clip-rule="nonzero"/></clipPath><clipPath id="3bc0314fb3"><path d="M 285 57 L 290 57 L 290 66 L 285 66 Z M 285 57 " clip-rule="nonzero"/></clipPath><clipPath id="2ce6ac06a6"><path d="M 272.96875 58.597656 L 292.644531 54.351562 L 297.207031 75.484375 L 277.527344 79.730469 Z M 272.96875 58.597656 " clip-rule="nonzero"/></clipPath><clipPath id="75680c0b4a"><path d="M 272.96875 58.597656 L 292.644531 54.351562 L 297.207031 75.484375 L 277.527344 79.730469 Z M 272.96875 58.597656 " clip-rule="nonzero"/></clipPath><clipPath id="52baa762a0"><path d="M 274 63 L 280 63 L 280 71 L 274 71 Z M 274 63 " clip-rule="nonzero"/></clipPath><clipPath id="6613a2317e"><path d="M 272.96875 58.597656 L 292.644531 54.351562 L 297.207031 75.484375 L 277.527344 79.730469 Z M 272.96875 58.597656 " clip-rule="nonzero"/></clipPath><clipPath id="ef0d6fdcf9"><path d="M 272.96875 58.597656 L 292.644531 54.351562 L 297.207031 75.484375 L 277.527344 79.730469 Z M 272.96875 58.597656 " clip-rule="nonzero"/></clipPath><clipPath id="bcbf4267eb"><path d="M 290 62 L 295 62 L 295 70 L 290 70 Z M 290 62 " clip-rule="nonzero"/></clipPath><clipPath id="ae8b6213de"><path d="M 272.96875 58.597656 L 292.644531 54.351562 L 297.207031 75.484375 L 277.527344 79.730469 Z M 272.96875 58.597656 " clip-rule="nonzero"/></clipPath><clipPath id="de4e15ed80"><path d="M 272.96875 58.597656 L 292.644531 54.351562 L 297.207031 75.484375 L 277.527344 79.730469 Z M 272.96875 58.597656 " clip-rule="nonzero"/></clipPath><clipPath id="e79e0b08bd"><path d="M 277 66 L 294 66 L 294 79 L 277 79 Z M 277 66 " clip-rule="nonzero"/></clipPath><clipPath id="a82415eeec"><path d="M 272.96875 58.597656 L 292.644531 54.351562 L 297.207031 75.484375 L 277.527344 79.730469 Z M 272.96875 58.597656 " clip-rule="nonzero"/></clipPath><clipPath id="5043b1bab4"><path d="M 272.96875 58.597656 L 292.644531 54.351562 L 297.207031 75.484375 L 277.527344 79.730469 Z M 272.96875 58.597656 " clip-rule="nonzero"/></clipPath></defs><g clip-path="url(#7ec6e5e06d)"><g clip-path="url(#7e6b91719b)"><g transform="matrix(1, 0, 0, 1, 1, 22)"><g clip-path="url(#bdf298023e)"><g clip-path="url(#b1a23efda5)"><g clip-path="url(#3b93488c5d)"><path fill="#ffffff" d="M 0.46875 0.308594 L 81.273438 0.308594 L 81.273438 80.175781 L 0.46875 80.175781 Z M 0.46875 0.308594 " fill-opacity="1" fill-rule="nonzero"/></g></g></g></g></g></g><g clip-path="url(#5a5e3ddccc)"><path fill="#ff751f" d="M 70.773438 81.828125 C 68.488281 83.527344 63.460938 82.4375 62.160156 79.921875 C 61.695312 79.03125 61.359375 78.074219 60.890625 76.988281 C 59.929688 75.207031 59.046875 73.585938 58.117188 71.894531 C 61.167969 70.898438 63.707031 71.457031 65.835938 73.914062 C 67.300781 75.605469 68.769531 77.289062 70.820312 78.398438 C 72.246094 79.167969 72.128906 80.816406 70.773438 81.828125 Z M 56.71875 76.59375 C 54.070312 76.058594 51.738281 74.898438 49.875 72.921875 C 49.574219 72.601562 49.539062 72.027344 49.230469 71.132812 C 49.980469 71.527344 50.375 71.617188 50.59375 71.863281 C 51.527344 72.90625 52.5 73.628906 54.046875 73.1875 C 54.429688 73.078125 55.089844 73.472656 55.433594 73.824219 C 56.023438 74.425781 56.460938 75.171875 57.019531 76.007812 C 56.957031 76.308594 56.808594 76.609375 56.71875 76.59375 Z M 10.382812 83.140625 C 10.820312 83.648438 11.171875 84.035156 11.496094 84.445312 C 14.542969 88.3125 19.316406 89.558594 23.59375 87.601562 C 27.753906 85.695312 29.988281 81.316406 29.160156 76.59375 C 28.945312 75.371094 28.570312 74.175781 28.210938 72.789062 C 27.578125 69.796875 26.855469 67.007812 26.484375 64.171875 C 26.296875 62.757812 26.707031 61.253906 26.902344 59.796875 C 27.105469 58.316406 26.730469 57.433594 25.683594 57.136719 C 24.519531 56.804688 23.574219 57.375 23.097656 58.839844 C 21.972656 62.277344 22.210938 65.753906 23.019531 69.203125 C 23.535156 71.394531 24.238281 73.542969 24.757812 75.734375 C 25.003906 76.777344 25.164062 77.886719 25.109375 78.957031 C 24.886719 83.417969 20.152344 85.78125 16.429688 83.3125 C 14.035156 81.730469 13.289062 79.371094 13.476562 76.628906 C 13.5 76.242188 13.578125 75.855469 13.675781 75.484375 C 13.941406 74.460938 14.042969 73.46875 13.183594 72.660156 C 12.5625 72.074219 11.957031 72.101562 10.238281 72.730469 C 9.664062 70.875 9.945312 69.007812 10.289062 67.226562 C 11.511719 60.847656 14.621094 55.625 20.074219 51.929688 C 20.203125 51.84375 20.328125 51.746094 20.457031 51.664062 C 21.378906 51.054688 22.394531 50.46875 22.054688 49.121094 C 21.726562 47.839844 20.660156 47.601562 19.023438 47.59375 C 20.160156 46.578125 20.957031 45.761719 21.855469 45.078125 C 28.097656 40.339844 35.136719 37.636719 42.972656 37.320312 C 48.621094 37.09375 53.726562 38.785156 57.953125 42.675781 C 58.957031 43.601562 59.769531 44.738281 60.984375 46.140625 C 59.695312 46.238281 58.894531 46.296875 58.09375 46.363281 C 57.015625 46.457031 56.347656 46.996094 56.296875 48.117188 C 56.242188 49.246094 56.910156 49.847656 57.925781 50.058594 C 58.453125 50.167969 59.011719 50.125 59.554688 50.125 C 63.367188 50.132812 67.179688 50.128906 70.992188 50.140625 C 74.96875 50.152344 77.890625 52.464844 78.578125 56.320312 C 79.152344 59.550781 78.351562 62.511719 76.246094 65.046875 C 74.824219 66.757812 73.675781 66.902344 71.339844 65.757812 C 72.828125 63.90625 73.953125 61.910156 74.121094 59.484375 C 74.152344 59.078125 74.792969 58.6875 75.191406 58.339844 C 76.152344 57.496094 76.652344 56.488281 76.203125 55.234375 C 75.757812 53.976562 74.875 53.0625 73.5 52.972656 C 71.875 52.863281 70.230469 52.839844 68.609375 52.96875 C 67.238281 53.074219 66.257812 54.136719 66.085938 55.339844 C 65.894531 56.691406 66.460938 57.554688 67.945312 58.171875 C 70.277344 59.140625 70.617188 60.402344 69.035156 62.398438 C 65.878906 66.378906 58.476562 69.828125 51.492188 66.441406 C 51.140625 66.273438 50.808594 66.070312 50.464844 65.886719 C 48.152344 64.644531 46.726562 65.132812 45.722656 67.585938 C 44.714844 70.058594 45.273438 72.355469 46.808594 74.402344 C 49.214844 77.605469 52.550781 79.375 56.429688 80.042969 C 57.972656 80.308594 59.097656 80.71875 59.960938 82.1875 C 60.664062 83.375 61.941406 84.222656 63.101562 85.355469 C 61.058594 85.738281 59.164062 85.398438 57.316406 84.921875 C 55.59375 84.472656 53.929688 83.804688 52.242188 83.222656 C 50.679688 82.683594 49.789062 82.925781 49.28125 84.058594 C 48.789062 85.15625 49.164062 86.199219 50.664062 86.800781 C 53.386719 87.894531 56.191406 88.78125 59.183594 89.832031 C 59.347656 92.84375 59.902344 95.667969 60.8125 98.332031 C 74.980469 91.605469 84.773438 77.167969 84.773438 60.441406 C 84.773438 37.285156 66.003906 18.515625 42.851562 18.515625 C 19.695312 18.515625 0.925781 37.285156 0.925781 60.441406 C 0.925781 69.671875 3.910156 78.203125 8.964844 85.128906 C 9.425781 84.460938 9.898438 83.796875 10.382812 83.140625 " fill-opacity="1" fill-rule="nonzero"/></g><path fill="#ff751f" d="M 45.746094 47.898438 C 44.804688 47.960938 43.84375 48.296875 43 48.808594 C 42.871094 48.886719 42.746094 48.972656 42.621094 49.058594 C 42.3125 49.277344 42.023438 49.515625 41.761719 49.773438 C 41.410156 50.125 41.113281 50.507812 40.886719 50.910156 C 40.816406 51.027344 40.757812 51.152344 40.703125 51.273438 C 40.699219 51.285156 40.691406 51.292969 40.6875 51.304688 C 40.609375 51.484375 40.546875 51.667969 40.503906 51.855469 C 40.429688 52.152344 40.378906 52.453125 40.378906 52.738281 C 40.378906 53.367188 40.609375 53.925781 41.328125 54.246094 C 42.375 54.714844 43.035156 54.085938 43.605469 53.230469 C 43.917969 52.765625 44.191406 52.390625 44.453125 52.101562 C 45.453125 51 46.265625 51.113281 48.109375 52.109375 C 48.222656 52.167969 48.328125 52.222656 48.429688 52.273438 C 49.546875 52.828125 49.882812 52.636719 50.882812 51.140625 C 50.871094 51.105469 50.855469 51.078125 50.839844 51.042969 C 50.859375 51.011719 50.878906 50.984375 50.898438 50.949219 C 50.003906 48.921875 48.027344 47.75 45.746094 47.898438 " fill-opacity="1" fill-rule="nonzero"/><g transform="matrix(1, 0, 0, 1, 98, 14)"><g clip-path="url(#b6530a50bc)"><g fill="#ffffff" fill-opacity="1"><g transform="translate(3.865028, 76.531534)"><g><path d="M 39.484375 -55.125 C 40.640625 -55.125 41.503906 -55.082031 42.078125 -55 C 42.648438 -54.925781 43.300781 -54.6875 44.03125 -54.28125 C 44.757812 -53.882812 45.273438 -53.210938 45.578125 -52.265625 C 45.878906 -51.316406 46.03125 -50.039062 46.03125 -48.4375 C 46.03125 -46.832031 45.878906 -45.550781 45.578125 -44.59375 C 45.273438 -43.644531 44.742188 -42.976562 43.984375 -42.59375 C 43.234375 -42.21875 42.570312 -41.992188 42 -41.921875 C 41.425781 -41.847656 40.535156 -41.8125 39.328125 -41.8125 L 16.3125 -41.8125 L 16.3125 -34.21875 L 31.140625 -34.21875 C 32.335938 -34.21875 33.222656 -34.175781 33.796875 -34.09375 C 34.378906 -34.019531 35.046875 -33.785156 35.796875 -33.390625 C 37.097656 -32.640625 37.75 -30.660156 37.75 -27.453125 C 37.75 -23.941406 36.796875 -21.859375 34.890625 -21.203125 C 34.085938 -20.953125 32.8125 -20.828125 31.0625 -20.828125 L 16.3125 -20.828125 L 16.3125 -6.625 C 16.3125 -5.414062 16.273438 -4.535156 16.203125 -3.984375 C 16.128906 -3.429688 15.890625 -2.78125 15.484375 -2.03125 C 14.785156 -0.675781 12.832031 0 9.625 0 C 6.113281 0 4.054688 -0.953125 3.453125 -2.859375 C 3.160156 -3.660156 3.015625 -4.9375 3.015625 -6.6875 L 3.015625 -48.5 C 3.015625 -51.0625 3.488281 -52.804688 4.4375 -53.734375 C 5.382812 -54.660156 7.191406 -55.125 9.859375 -55.125 Z M 39.484375 -55.125 "/></g></g></g><g fill="#ffffff" fill-opacity="1"><g transform="translate(47.252498, 76.531534)"><g><path d="M 20.609375 -0.15625 C 15.546875 -0.15625 11.347656 -2.070312 8.015625 -5.90625 C 4.679688 -9.738281 3.015625 -14.410156 3.015625 -19.921875 L 3.015625 -33.09375 C 3.015625 -34.289062 3.050781 -35.164062 3.125 -35.71875 C 3.195312 -36.269531 3.410156 -36.921875 3.765625 -37.671875 C 4.460938 -39.023438 6.414062 -39.703125 9.625 -39.703125 C 13.132812 -39.703125 15.191406 -38.75 15.796875 -36.84375 C 16.097656 -36.039062 16.25 -34.765625 16.25 -33.015625 L 16.25 -19.859375 C 16.25 -17.796875 16.835938 -16.1875 18.015625 -15.03125 C 19.191406 -13.882812 20.769531 -13.3125 22.75 -13.3125 C 24.726562 -13.3125 26.332031 -13.910156 27.5625 -15.109375 C 28.789062 -16.316406 29.40625 -17.898438 29.40625 -19.859375 L 29.40625 -33.171875 C 29.40625 -34.316406 29.441406 -35.175781 29.515625 -35.75 C 29.585938 -36.332031 29.828125 -37 30.234375 -37.75 C 30.878906 -39.050781 32.804688 -39.703125 36.015625 -39.703125 C 39.179688 -39.703125 41.113281 -39.023438 41.8125 -37.671875 C 42.164062 -36.921875 42.378906 -36.253906 42.453125 -35.671875 C 42.523438 -35.097656 42.5625 -34.238281 42.5625 -33.09375 L 42.5625 -6.46875 C 42.5625 -5.363281 42.523438 -4.519531 42.453125 -3.9375 C 42.378906 -3.363281 42.140625 -2.726562 41.734375 -2.03125 C 40.984375 -0.726562 39.054688 -0.078125 35.953125 -0.078125 C 32.890625 -0.078125 31.007812 -0.675781 30.3125 -1.875 C 29.8125 -2.726562 29.5625 -3.757812 29.5625 -4.96875 C 29.351562 -4.613281 28.894531 -4.109375 28.1875 -3.453125 C 27.488281 -2.804688 26.816406 -2.257812 26.171875 -1.8125 C 24.460938 -0.707031 22.609375 -0.15625 20.609375 -0.15625 Z M 20.609375 -0.15625 "/></g></g></g><g fill="#ffffff" fill-opacity="1"><g transform="translate(92.820722, 76.531534)"><g><path d="M 29.921875 -39.171875 C 30.878906 -38.878906 31.671875 -38.367188 32.296875 -37.640625 C 32.921875 -36.910156 33.234375 -35.742188 33.234375 -34.140625 C 33.234375 -32.535156 32.753906 -30.78125 31.796875 -28.875 C 30.847656 -26.96875 29.472656 -26.015625 27.671875 -26.015625 C 26.773438 -26.015625 25.910156 -26.210938 25.078125 -26.609375 C 24.253906 -27.015625 23.164062 -27.21875 21.8125 -27.21875 C 20.457031 -27.21875 19.191406 -26.738281 18.015625 -25.78125 C 16.835938 -24.832031 16.25 -23.679688 16.25 -22.328125 L 16.25 -6.546875 C 16.25 -5.390625 16.207031 -4.519531 16.125 -3.9375 C 16.050781 -3.363281 15.816406 -2.703125 15.421875 -1.953125 C 14.660156 -0.648438 12.703125 0 9.546875 0 C 7.140625 0 5.410156 -0.425781 4.359375 -1.28125 C 3.554688 -1.976562 3.109375 -3.054688 3.015625 -4.515625 C 3.015625 -5.015625 3.015625 -5.738281 3.015625 -6.6875 L 3.015625 -33.09375 C 3.015625 -34.238281 3.050781 -35.097656 3.125 -35.671875 C 3.195312 -36.253906 3.410156 -36.898438 3.765625 -37.609375 C 4.460938 -38.953125 6.414062 -39.625 9.625 -39.625 C 12.632812 -39.625 14.515625 -39.050781 15.265625 -37.90625 C 15.816406 -37.101562 16.09375 -36.273438 16.09375 -35.421875 C 16.34375 -35.773438 16.703125 -36.203125 17.171875 -36.703125 C 17.648438 -37.203125 18.664062 -37.878906 20.21875 -38.734375 C 21.78125 -39.585938 23.148438 -40.015625 24.328125 -40.015625 C 25.503906 -40.015625 26.492188 -39.945312 27.296875 -39.8125 C 28.097656 -39.6875 28.972656 -39.472656 29.921875 -39.171875 Z M 29.921875 -39.171875 "/></g></g></g><g fill="#ffffff" fill-opacity="1"><g transform="translate(127.184883, 76.531534)"><g><path d="M 39.484375 -55.125 C 40.640625 -55.125 41.503906 -55.082031 42.078125 -55 C 42.648438 -54.925781 43.300781 -54.6875 44.03125 -54.28125 C 44.757812 -53.882812 45.273438 -53.210938 45.578125 -52.265625 C 45.878906 -51.316406 46.03125 -50.039062 46.03125 -48.4375 C 46.03125 -46.832031 45.878906 -45.550781 45.578125 -44.59375 C 45.273438 -43.644531 44.742188 -42.976562 43.984375 -42.59375 C 43.234375 -42.21875 42.570312 -41.992188 42 -41.921875 C 41.425781 -41.847656 40.535156 -41.8125 39.328125 -41.8125 L 16.3125 -41.8125 L 16.3125 -34.21875 L 31.140625 -34.21875 C 32.335938 -34.21875 33.222656 -34.175781 33.796875 -34.09375 C 34.378906 -34.019531 35.046875 -33.785156 35.796875 -33.390625 C 37.097656 -32.640625 37.75 -30.660156 37.75 -27.453125 C 37.75 -23.941406 36.796875 -21.859375 34.890625 -21.203125 C 34.085938 -20.953125 32.8125 -20.828125 31.0625 -20.828125 L 16.3125 -20.828125 L 16.3125 -6.625 C 16.3125 -5.414062 16.273438 -4.535156 16.203125 -3.984375 C 16.128906 -3.429688 15.890625 -2.78125 15.484375 -2.03125 C 14.785156 -0.675781 12.832031 0 9.625 0 C 6.113281 0 4.054688 -0.953125 3.453125 -2.859375 C 3.160156 -3.660156 3.015625 -4.9375 3.015625 -6.6875 L 3.015625 -48.5 C 3.015625 -51.0625 3.488281 -52.804688 4.4375 -53.734375 C 5.382812 -54.660156 7.191406 -55.125 9.859375 -55.125 Z M 39.484375 -55.125 "/></g></g></g><g fill="#ffffff" fill-opacity="1"><g transform="translate(168.316445, 76.531534)"><g><path d="M 28.734375 -35.421875 C 29.023438 -38.222656 31.003906 -39.625 34.671875 -39.625 C 36.628906 -39.625 38.082031 -39.472656 39.03125 -39.171875 C 39.976562 -38.878906 40.640625 -38.351562 41.015625 -37.59375 C 41.398438 -36.84375 41.628906 -36.179688 41.703125 -35.609375 C 41.773438 -35.035156 41.8125 -34.171875 41.8125 -33.015625 L 41.8125 -6.6875 C 41.8125 -5.539062 41.773438 -4.675781 41.703125 -4.09375 C 41.628906 -3.519531 41.414062 -2.859375 41.0625 -2.109375 C 40.363281 -0.804688 38.644531 -0.15625 35.90625 -0.15625 C 33.175781 -0.15625 31.347656 -0.492188 30.421875 -1.171875 C 29.492188 -1.847656 28.953125 -2.835938 28.796875 -4.140625 C 26.941406 -1.484375 23.847656 -0.15625 19.515625 -0.15625 C 15.179688 -0.15625 11.15625 -2.132812 7.4375 -6.09375 C 3.726562 -10.050781 1.875 -14.648438 1.875 -19.890625 C 1.875 -25.128906 3.738281 -29.71875 7.46875 -33.65625 C 11.207031 -37.59375 15.3125 -39.5625 19.78125 -39.5625 C 21.476562 -39.5625 23.03125 -39.257812 24.4375 -38.65625 C 25.84375 -38.050781 26.820312 -37.484375 27.375 -36.953125 C 27.925781 -36.429688 28.378906 -35.921875 28.734375 -35.421875 Z M 15.046875 -19.78125 C 15.046875 -18.125 15.695312 -16.628906 17 -15.296875 C 18.300781 -13.972656 19.878906 -13.3125 21.734375 -13.3125 C 23.585938 -13.3125 25.128906 -13.988281 26.359375 -15.34375 C 27.585938 -16.695312 28.203125 -18.1875 28.203125 -19.8125 C 28.203125 -21.445312 27.613281 -22.960938 26.4375 -24.359375 C 25.257812 -25.765625 23.675781 -26.46875 21.6875 -26.46875 C 19.707031 -26.46875 18.101562 -25.765625 16.875 -24.359375 C 15.65625 -22.960938 15.046875 -21.4375 15.046875 -19.78125 Z M 15.046875 -19.78125 "/></g></g></g><g fill="#ffffff" fill-opacity="1"><g transform="translate(213.132713, 76.531534)"><g><path d="M 15.9375 -34.375 C 18.300781 -37.925781 21.132812 -39.703125 24.4375 -39.703125 C 29.550781 -39.703125 33.363281 -37.523438 35.875 -33.171875 C 36.425781 -33.921875 37.085938 -34.707031 37.859375 -35.53125 C 38.640625 -36.363281 39.878906 -37.265625 41.578125 -38.234375 C 43.285156 -39.210938 45.046875 -39.703125 46.859375 -39.703125 C 50.867188 -39.703125 54.222656 -38.160156 56.921875 -35.078125 C 59.628906 -31.992188 60.984375 -26.894531 60.984375 -19.78125 L 60.984375 -6.625 C 60.984375 -5.46875 60.945312 -4.597656 60.875 -4.015625 C 60.800781 -3.441406 60.5625 -2.78125 60.15625 -2.03125 C 59.507812 -0.675781 57.582031 0 54.375 0 C 51.21875 0 49.285156 -0.703125 48.578125 -2.109375 C 48.234375 -2.859375 48.019531 -3.519531 47.9375 -4.09375 C 47.863281 -4.675781 47.828125 -5.539062 47.828125 -6.6875 L 47.828125 -19.859375 C 47.828125 -24.210938 46.273438 -26.390625 43.171875 -26.390625 C 41.410156 -26.390625 40.21875 -25.8125 39.59375 -24.65625 C 38.96875 -23.507812 38.65625 -21.882812 38.65625 -19.78125 L 38.65625 -6.625 C 38.65625 -5.414062 38.613281 -4.535156 38.53125 -3.984375 C 38.457031 -3.429688 38.222656 -2.78125 37.828125 -2.03125 C 37.128906 -0.675781 35.175781 0 31.96875 0 C 28.800781 0 26.867188 -0.703125 26.171875 -2.109375 C 25.816406 -2.859375 25.601562 -3.519531 25.53125 -4.09375 C 25.457031 -4.675781 25.421875 -5.539062 25.421875 -6.6875 L 25.421875 -19.859375 C 25.421875 -24.210938 23.863281 -26.390625 20.75 -26.390625 C 17.75 -26.390625 16.25 -24.210938 16.25 -19.859375 L 16.25 -6.546875 C 16.25 -5.390625 16.207031 -4.519531 16.125 -3.9375 C 16.050781 -3.363281 15.816406 -2.703125 15.421875 -1.953125 C 14.660156 -0.648438 12.703125 0 9.546875 0 C 6.390625 0 4.460938 -0.675781 3.765625 -2.03125 C 3.410156 -2.78125 3.195312 -3.429688 3.125 -3.984375 C 3.050781 -4.535156 3.015625 -5.414062 3.015625 -6.625 L 3.015625 -33.09375 C 3.015625 -34.238281 3.050781 -35.097656 3.125 -35.671875 C 3.195312 -36.253906 3.429688 -36.898438 3.828125 -37.609375 C 4.585938 -38.953125 6.367188 -39.625 9.171875 -39.625 C 11.984375 -39.625 13.8125 -39.171875 14.65625 -38.265625 C 15.507812 -37.367188 15.9375 -36.070312 15.9375 -34.375 Z M 15.9375 -34.375 "/></g></g></g><g fill="#ff751f" fill-opacity="1"><g transform="translate(0.541642, 73.208146)"><g><path d="M 39.484375 -55.125 C 40.640625 -55.125 41.503906 -55.082031 42.078125 -55 C 42.648438 -54.925781 43.300781 -54.6875 44.03125 -54.28125 C 44.757812 -53.882812 45.273438 -53.210938 45.578125 -52.265625 C 45.878906 -51.316406 46.03125 -50.039062 46.03125 -48.4375 C 46.03125 -46.832031 45.878906 -45.550781 45.578125 -44.59375 C 45.273438 -43.644531 44.742188 -42.976562 43.984375 -42.59375 C 43.234375 -42.21875 42.570312 -41.992188 42 -41.921875 C 41.425781 -41.847656 40.535156 -41.8125 39.328125 -41.8125 L 16.3125 -41.8125 L 16.3125 -34.21875 L 31.140625 -34.21875 C 32.335938 -34.21875 33.222656 -34.175781 33.796875 -34.09375 C 34.378906 -34.019531 35.046875 -33.785156 35.796875 -33.390625 C 37.097656 -32.640625 37.75 -30.660156 37.75 -27.453125 C 37.75 -23.941406 36.796875 -21.859375 34.890625 -21.203125 C 34.085938 -20.953125 32.8125 -20.828125 31.0625 -20.828125 L 16.3125 -20.828125 L 16.3125 -6.625 C 16.3125 -5.414062 16.273438 -4.535156 16.203125 -3.984375 C 16.128906 -3.429688 15.890625 -2.78125 15.484375 -2.03125 C 14.785156 -0.675781 12.832031 0 9.625 0 C 6.113281 0 4.054688 -0.953125 3.453125 -2.859375 C 3.160156 -3.660156 3.015625 -4.9375 3.015625 -6.6875 L 3.015625 -48.5 C 3.015625 -51.0625 3.488281 -52.804688 4.4375 -53.734375 C 5.382812 -54.660156 7.191406 -55.125 9.859375 -55.125 Z M 39.484375 -55.125 "/></g></g></g><g fill="#ff751f" fill-opacity="1"><g transform="translate(43.929113, 73.208146)"><g><path d="M 20.609375 -0.15625 C 15.546875 -0.15625 11.347656 -2.070312 8.015625 -5.90625 C 4.679688 -9.738281 3.015625 -14.410156 3.015625 -19.921875 L 3.015625 -33.09375 C 3.015625 -34.289062 3.050781 -35.164062 3.125 -35.71875 C 3.195312 -36.269531 3.410156 -36.921875 3.765625 -37.671875 C 4.460938 -39.023438 6.414062 -39.703125 9.625 -39.703125 C 13.132812 -39.703125 15.191406 -38.75 15.796875 -36.84375 C 16.097656 -36.039062 16.25 -34.765625 16.25 -33.015625 L 16.25 -19.859375 C 16.25 -17.796875 16.835938 -16.1875 18.015625 -15.03125 C 19.191406 -13.882812 20.769531 -13.3125 22.75 -13.3125 C 24.726562 -13.3125 26.332031 -13.910156 27.5625 -15.109375 C 28.789062 -16.316406 29.40625 -17.898438 29.40625 -19.859375 L 29.40625 -33.171875 C 29.40625 -34.316406 29.441406 -35.175781 29.515625 -35.75 C 29.585938 -36.332031 29.828125 -37 30.234375 -37.75 C 30.878906 -39.050781 32.804688 -39.703125 36.015625 -39.703125 C 39.179688 -39.703125 41.113281 -39.023438 41.8125 -37.671875 C 42.164062 -36.921875 42.378906 -36.253906 42.453125 -35.671875 C 42.523438 -35.097656 42.5625 -34.238281 42.5625 -33.09375 L 42.5625 -6.46875 C 42.5625 -5.363281 42.523438 -4.519531 42.453125 -3.9375 C 42.378906 -3.363281 42.140625 -2.726562 41.734375 -2.03125 C 40.984375 -0.726562 39.054688 -0.078125 35.953125 -0.078125 C 32.890625 -0.078125 31.007812 -0.675781 30.3125 -1.875 C 29.8125 -2.726562 29.5625 -3.757812 29.5625 -4.96875 C 29.351562 -4.613281 28.894531 -4.109375 28.1875 -3.453125 C 27.488281 -2.804688 26.816406 -2.257812 26.171875 -1.8125 C 24.460938 -0.707031 22.609375 -0.15625 20.609375 -0.15625 Z M 20.609375 -0.15625 "/></g></g></g><g fill="#ff751f" fill-opacity="1"><g transform="translate(89.497337, 73.208146)"><g><path d="M 29.921875 -39.171875 C 30.878906 -38.878906 31.671875 -38.367188 32.296875 -37.640625 C 32.921875 -36.910156 33.234375 -35.742188 33.234375 -34.140625 C 33.234375 -32.535156 32.753906 -30.78125 31.796875 -28.875 C 30.847656 -26.96875 29.472656 -26.015625 27.671875 -26.015625 C 26.773438 -26.015625 25.910156 -26.210938 25.078125 -26.609375 C 24.253906 -27.015625 23.164062 -27.21875 21.8125 -27.21875 C 20.457031 -27.21875 19.191406 -26.738281 18.015625 -25.78125 C 16.835938 -24.832031 16.25 -23.679688 16.25 -22.328125 L 16.25 -6.546875 C 16.25 -5.390625 16.207031 -4.519531 16.125 -3.9375 C 16.050781 -3.363281 15.816406 -2.703125 15.421875 -1.953125 C 14.660156 -0.648438 12.703125 0 9.546875 0 C 7.140625 0 5.410156 -0.425781 4.359375 -1.28125 C 3.554688 -1.976562 3.109375 -3.054688 3.015625 -4.515625 C 3.015625 -5.015625 3.015625 -5.738281 3.015625 -6.6875 L 3.015625 -33.09375 C 3.015625 -34.238281 3.050781 -35.097656 3.125 -35.671875 C 3.195312 -36.253906 3.410156 -36.898438 3.765625 -37.609375 C 4.460938 -38.953125 6.414062 -39.625 9.625 -39.625 C 12.632812 -39.625 14.515625 -39.050781 15.265625 -37.90625 C 15.816406 -37.101562 16.09375 -36.273438 16.09375 -35.421875 C 16.34375 -35.773438 16.703125 -36.203125 17.171875 -36.703125 C 17.648438 -37.203125 18.664062 -37.878906 20.21875 -38.734375 C 21.78125 -39.585938 23.148438 -40.015625 24.328125 -40.015625 C 25.503906 -40.015625 26.492188 -39.945312 27.296875 -39.8125 C 28.097656 -39.6875 28.972656 -39.472656 29.921875 -39.171875 Z M 29.921875 -39.171875 "/></g></g></g><g fill="#ff751f" fill-opacity="1"><g transform="translate(123.861497, 73.208146)"><g><path d="M 39.484375 -55.125 C 40.640625 -55.125 41.503906 -55.082031 42.078125 -55 C 42.648438 -54.925781 43.300781 -54.6875 44.03125 -54.28125 C 44.757812 -53.882812 45.273438 -53.210938 45.578125 -52.265625 C 45.878906 -51.316406 46.03125 -50.039062 46.03125 -48.4375 C 46.03125 -46.832031 45.878906 -45.550781 45.578125 -44.59375 C 45.273438 -43.644531 44.742188 -42.976562 43.984375 -42.59375 C 43.234375 -42.21875 42.570312 -41.992188 42 -41.921875 C 41.425781 -41.847656 40.535156 -41.8125 39.328125 -41.8125 L 16.3125 -41.8125 L 16.3125 -34.21875 L 31.140625 -34.21875 C 32.335938 -34.21875 33.222656 -34.175781 33.796875 -34.09375 C 34.378906 -34.019531 35.046875 -33.785156 35.796875 -33.390625 C 37.097656 -32.640625 37.75 -30.660156 37.75 -27.453125 C 37.75 -23.941406 36.796875 -21.859375 34.890625 -21.203125 C 34.085938 -20.953125 32.8125 -20.828125 31.0625 -20.828125 L 16.3125 -20.828125 L 16.3125 -6.625 C 16.3125 -5.414062 16.273438 -4.535156 16.203125 -3.984375 C 16.128906 -3.429688 15.890625 -2.78125 15.484375 -2.03125 C 14.785156 -0.675781 12.832031 0 9.625 0 C 6.113281 0 4.054688 -0.953125 3.453125 -2.859375 C 3.160156 -3.660156 3.015625 -4.9375 3.015625 -6.6875 L 3.015625 -48.5 C 3.015625 -51.0625 3.488281 -52.804688 4.4375 -53.734375 C 5.382812 -54.660156 7.191406 -55.125 9.859375 -55.125 Z M 39.484375 -55.125 "/></g></g></g><g fill="#ff751f" fill-opacity="1"><g transform="translate(164.993059, 73.208146)"><g><path d="M 28.734375 -35.421875 C 29.023438 -38.222656 31.003906 -39.625 34.671875 -39.625 C 36.628906 -39.625 38.082031 -39.472656 39.03125 -39.171875 C 39.976562 -38.878906 40.640625 -38.351562 41.015625 -37.59375 C 41.398438 -36.84375 41.628906 -36.179688 41.703125 -35.609375 C 41.773438 -35.035156 41.8125 -34.171875 41.8125 -33.015625 L 41.8125 -6.6875 C 41.8125 -5.539062 41.773438 -4.675781 41.703125 -4.09375 C 41.628906 -3.519531 41.414062 -2.859375 41.0625 -2.109375 C 40.363281 -0.804688 38.644531 -0.15625 35.90625 -0.15625 C 33.175781 -0.15625 31.347656 -0.492188 30.421875 -1.171875 C 29.492188 -1.847656 28.953125 -2.835938 28.796875 -4.140625 C 26.941406 -1.484375 23.847656 -0.15625 19.515625 -0.15625 C 15.179688 -0.15625 11.15625 -2.132812 7.4375 -6.09375 C 3.726562 -10.050781 1.875 -14.648438 1.875 -19.890625 C 1.875 -25.128906 3.738281 -29.71875 7.46875 -33.65625 C 11.207031 -37.59375 15.3125 -39.5625 19.78125 -39.5625 C 21.476562 -39.5625 23.03125 -39.257812 24.4375 -38.65625 C 25.84375 -38.050781 26.820312 -37.484375 27.375 -36.953125 C 27.925781 -36.429688 28.378906 -35.921875 28.734375 -35.421875 Z M 15.046875 -19.78125 C 15.046875 -18.125 15.695312 -16.628906 17 -15.296875 C 18.300781 -13.972656 19.878906 -13.3125 21.734375 -13.3125 C 23.585938 -13.3125 25.128906 -13.988281 26.359375 -15.34375 C 27.585938 -16.695312 28.203125 -18.1875 28.203125 -19.8125 C 28.203125 -21.445312 27.613281 -22.960938 26.4375 -24.359375 C 25.257812 -25.765625 23.675781 -26.46875 21.6875 -26.46875 C 19.707031 -26.46875 18.101562 -25.765625 16.875 -24.359375 C 15.65625 -22.960938 15.046875 -21.4375 15.046875 -19.78125 Z M 15.046875 -19.78125 "/></g></g></g><g fill="#ff751f" fill-opacity="1"><g transform="translate(209.809328, 73.208146)"><g><path d="M 15.9375 -34.375 C 18.300781 -37.925781 21.132812 -39.703125 24.4375 -39.703125 C 29.550781 -39.703125 33.363281 -37.523438 35.875 -33.171875 C 36.425781 -33.921875 37.085938 -34.707031 37.859375 -35.53125 C 38.640625 -36.363281 39.878906 -37.265625 41.578125 -38.234375 C 43.285156 -39.210938 45.046875 -39.703125 46.859375 -39.703125 C 50.867188 -39.703125 54.222656 -38.160156 56.921875 -35.078125 C 59.628906 -31.992188 60.984375 -26.894531 60.984375 -19.78125 L 60.984375 -6.625 C 60.984375 -5.46875 60.945312 -4.597656 60.875 -4.015625 C 60.800781 -3.441406 60.5625 -2.78125 60.15625 -2.03125 C 59.507812 -0.675781 57.582031 0 54.375 0 C 51.21875 0 49.285156 -0.703125 48.578125 -2.109375 C 48.234375 -2.859375 48.019531 -3.519531 47.9375 -4.09375 C 47.863281 -4.675781 47.828125 -5.539062 47.828125 -6.6875 L 47.828125 -19.859375 C 47.828125 -24.210938 46.273438 -26.390625 43.171875 -26.390625 C 41.410156 -26.390625 40.21875 -25.8125 39.59375 -24.65625 C 38.96875 -23.507812 38.65625 -21.882812 38.65625 -19.78125 L 38.65625 -6.625 C 38.65625 -5.414062 38.613281 -4.535156 38.53125 -3.984375 C 38.457031 -3.429688 38.222656 -2.78125 37.828125 -2.03125 C 37.128906 -0.675781 35.175781 0 31.96875 0 C 28.800781 0 26.867188 -0.703125 26.171875 -2.109375 C 25.816406 -2.859375 25.601562 -3.519531 25.53125 -4.09375 C 25.457031 -4.675781 25.421875 -5.539062 25.421875 -6.6875 L 25.421875 -19.859375 C 25.421875 -24.210938 23.863281 -26.390625 20.75 -26.390625 C 17.75 -26.390625 16.25 -24.210938 16.25 -19.859375 L 16.25 -6.546875 C 16.25 -5.390625 16.207031 -4.519531 16.125 -3.9375 C 16.050781 -3.363281 15.816406 -2.703125 15.421875 -1.953125 C 14.660156 -0.648438 12.703125 0 9.546875 0 C 6.390625 0 4.460938 -0.675781 3.765625 -2.03125 C 3.410156 -2.78125 3.195312 -3.429688 3.125 -3.984375 C 3.050781 -4.535156 3.015625 -5.414062 3.015625 -6.625 L 3.015625 -33.09375 C 3.015625 -34.238281 3.050781 -35.097656 3.125 -35.671875 C 3.195312 -36.253906 3.429688 -36.898438 3.828125 -37.609375 C 4.585938 -38.953125 6.367188 -39.625 9.171875 -39.625 C 11.984375 -39.625 13.8125 -39.171875 14.65625 -38.265625 C 15.507812 -37.367188 15.9375 -36.070312 15.9375 -34.375 Z M 15.9375 -34.375 "/></g></g></g></g></g><g clip-path="url(#e17b3bb6d4)"><g clip-path="url(#83b83e3b20)"><g transform="matrix(1, 0, 0, 1, 277, 60)"><g clip-path="url(#7dc93e08e5)"><g clip-path="url(#5afcfc1ddf)"><g clip-path="url(#061631e254)"><path fill="#ff751f" d="M 0.5625 0.457031 L 15.667969 0.457031 L 15.667969 15.5625 L 0.5625 15.5625 Z M 0.5625 0.457031 " fill-opacity="1" fill-rule="nonzero"/></g></g></g></g></g></g><g clip-path="url(#1f37509db0)"><g clip-path="url(#0b48adb804)"><g clip-path="url(#d2ae72caac)"><path fill="#ffffff" d="M 281.210938 56.867188 C 282.503906 56.671875 283.382812 57.996094 283.714844 59.039062 C 284.082031 60.203125 284.144531 61.378906 283.898438 62.566406 C 283.722656 63.429688 283.277344 64.546875 282.429688 64.953125 C 282.167969 65.078125 281.894531 65.117188 281.617188 65.066406 C 280.574219 64.890625 279.867188 63.671875 279.554688 62.773438 C 279.03125 61.269531 279.003906 59.550781 279.710938 58.121094 C 279.996094 57.550781 280.558594 56.964844 281.210938 56.867188 Z M 281.210938 56.867188 " fill-opacity="1" fill-rule="nonzero"/></g></g></g><g clip-path="url(#3bc0314fb3)"><g clip-path="url(#2ce6ac06a6)"><g clip-path="url(#75680c0b4a)"><path fill="#ffffff" d="M 285.738281 59.117188 C 286.121094 58.386719 286.875 57.773438 287.75 57.9375 C 288.558594 58.09375 289.125 58.765625 289.421875 59.496094 C 289.84375 60.53125 289.882812 61.601562 289.714844 62.722656 C 289.550781 63.808594 288.902344 65.703125 287.457031 65.570312 C 286.589844 65.492188 285.898438 64.476562 285.589844 63.761719 C 284.945312 62.261719 284.976562 60.578125 285.738281 59.117188 Z M 285.738281 59.117188 " fill-opacity="1" fill-rule="nonzero"/></g></g></g><g clip-path="url(#52baa762a0)"><g clip-path="url(#6613a2317e)"><g clip-path="url(#ef0d6fdcf9)"><path fill="#ffffff" d="M 274.726562 66.742188 L 274.582031 66.066406 C 274.5 65.519531 274.519531 65.003906 274.636719 64.515625 C 274.921875 63.304688 276.007812 62.648438 277.164062 63.25 C 277.984375 63.675781 278.570312 64.402344 278.925781 65.25 C 279.28125 66.101562 279.390625 67 279.257812 67.953125 C 279.167969 68.617188 278.929688 69.363281 278.417969 69.777344 C 277.425781 70.582031 276.226562 69.523438 275.683594 68.742188 C 275.261719 68.132812 274.941406 67.464844 274.726562 66.742188 Z M 274.726562 66.742188 " fill-opacity="1" fill-rule="nonzero"/></g></g></g><g clip-path="url(#bcbf4267eb)"><g clip-path="url(#ae8b6213de)"><g clip-path="url(#de4e15ed80)"><path fill="#ffffff" d="M 293.324219 69.488281 C 292.488281 69.953125 291.695312 69.421875 291.21875 68.75 C 290.269531 67.414062 290.058594 65.691406 290.644531 64.167969 C 290.964844 63.335938 291.714844 62.347656 292.703125 62.355469 C 294.144531 62.371094 294.773438 64.101562 294.839844 65.273438 C 294.910156 66.535156 294.578125 68.796875 293.324219 69.488281 Z M 293.324219 69.488281 " fill-opacity="1" fill-rule="nonzero"/></g></g></g><g clip-path="url(#e79e0b08bd)"><g clip-path="url(#a82415eeec)"><g clip-path="url(#5043b1bab4)"><path fill="#ffffff" d="M 284.277344 66.457031 C 286.515625 66.386719 287.660156 68.046875 289.039062 69.472656 C 289.558594 70.007812 290.148438 70.433594 290.816406 70.75 C 291.164062 70.914062 291.339844 71 291.339844 71 C 292.121094 71.417969 292.710938 72.019531 293.117188 72.796875 C 293.84375 74.191406 293.367188 75.738281 291.933594 76.453125 C 290.824219 77.003906 289.570312 76.792969 288.261719 76.59375 C 286.859375 76.382812 285.527344 76.597656 284.257812 77.246094 C 283.503906 77.628906 282.574219 78.273438 281.636719 78.585938 C 280.519531 78.960938 279.390625 78.824219 278.460938 78.089844 C 277.816406 77.578125 277.445312 76.898438 277.371094 76.078125 C 277.261719 74.921875 277.714844 73.710938 278.464844 72.84375 C 278.539062 72.757812 278.703125 72.597656 278.953125 72.371094 C 279.886719 71.53125 280.402344 70.523438 280.882812 69.378906 C 281.410156 68.132812 282.230469 66.933594 283.628906 66.578125 C 283.925781 66.5 284.140625 66.460938 284.277344 66.457031 Z M 284.277344 66.457031 " fill-opacity="1" fill-rule="nonzero"/></g></g></g></svg>